Coordinates
version=1
nRows=11
nColumns=26
inDegrees=yes

Units are S.I. units (second, meters, Newtons, ...)
Angles are in degrees.

endheader
time	pelvis_tilt	pelvis_list	pelvis_rotation	pelvis_tx	pelvis_ty	pelvis_tz	hip_flexion_r	hip_adduction_r	hip_rotation_r	knee_angle_r	knee_angle_r_beta	ankle_angle_r	subtalar_angle_r	mtp_angle_r	hip_flexion_l	hip_adduction_l	hip_rotation_l	knee_angle_l	knee_angle_l_beta	ankle_angle_l	subtalar_angle_l	mtp_angle_l	lumbar_extension	lumbar_bending	lumbar_rotation
    194.38571430	    -11.38872585	     -0.99006907	      1.27966852	      0.42570488	      1.04248234	      0.18417493	     37.89905498	      0.52629922	     -4.94691909	     15.22456873	     15.22456873	     -9.91141837	     -9.12528252	      0.00000000	    -12.54263199	     -1.77621937	      4.38800412	     32.51611684	     32.51611684	    -21.84739461	    -14.29282008	      0.00000000	     -1.12442642	      2.83836543	    -14.79971033
    194.39571430	    -10.31557453	     -0.18654185	      0.92861895	      0.42673119	      1.04051664	      0.18543156	     36.26172473	     -0.01091915	     -5.24264277	     14.68456420	     14.68456420	     -9.81212296	     -8.93331072	      0.00000000	    -12.26851691	     -0.97528106	      3.37845529	     37.81005378	     37.81005378	    -22.50605057	    -15.62014354	      0.00000000	     -2.36845461	      2.06005107	    -14.16961779
    194.40571430	     -9.71046573	      0.26963108	      0.59144478	      0.42725700	      1.03693708	      0.18633577	     35.08372773	     -0.17884481	     -4.87392197	     14.72353293	     14.72353293	    -10.22542598	     -9.88920296	      0.00000000	    -11.06313140	     -0.48888150	      2.56706235	     43.74145841	     43.74145841	    -23.58850566	    -18.14457191	      0.00000000	     -3.07211866	      1.76471290	    -13.71467847
    194.41571430	     -9.01548839	      0.72072985	      0.08009650	      0.42738195	      1.03252058	      0.18700833	     33.88274520	     -0.29098688	     -4.05279171	     15.51551155	     15.51551155	    -10.52040247	    -10.61975710	      0.00000000	     -9.66586756	      0.05020285	      1.82608119	     49.96303430	     49.96303430	    -23.99056862	    -19.99451230	      0.00000000	     -3.95585232	      1.56694015	    -12.88841083
    194.42571430	     -8.20379977	      1.03729014	     -0.49666693	      0.42725161	      1.02710375	      0.18753507	     32.56156319	     -0.29359496	     -2.99597735	     16.87153297	     16.87153297	    -10.64801992	    -10.78699524	      0.00000000	     -8.18571627	      0.48472929	      1.20693109	     56.29221620	     56.29221620	    -23.84717929	    -21.44855247	      0.00000000	     -5.01376532	      1.55173830	    -11.94190167
    194.43571430	     -7.92134402	      1.00840458	     -1.11345538	      0.42629772	      1.01999257	      0.18844871	     31.75817324	      0.16763035	     -1.31391939	     18.56207961	     18.56207961	    -10.87190117	    -11.31945835	      0.00000000	     -5.83706110	      0.42359437	      0.49512904	     62.83074698	     62.83074698	    -23.67189711	    -22.47098985	      0.00000000	     -5.54944617	      1.84625520	    -10.88882169
    194.44571430	     -7.12361562	      0.49374099	     -1.79071808	      0.42525630	      1.01308368	      0.18965023	     30.46463620	      1.18900227	      0.00486699	     21.18131260	     21.18131260	     -8.75972566	    -12.87236432	      0.00000000	     -4.04927456	     -0.28887078	     -0.29127671	     69.04167041	     69.04167041	    -23.27240909	    -23.21704371	      0.00000000	     -6.78667000	      2.62181376	     -9.81655413
    194.45571430	     -7.58099412	     -1.04811970	     -2.62952761	      0.42278503	      1.00357071	      0.19195846	     30.57178387	      3.62212056	      1.14206469	     24.36643688	     24.36643688	     -5.51151064	    -16.72283115	      0.00000000	     -0.59023191	     -2.60817815	     -1.35646783	     75.83658571	     75.83658571	    -21.23350023	    -22.49396449	      0.00000000	     -6.78331794	      4.49352057	     -8.11875302
    194.46571430	     -7.74653308	     -2.55223371	     -3.60276373	      0.41953025	      0.99397051	      0.19396359	     31.28606675	      5.86614993	      1.05332800	     29.19062668	     29.19062668	     -1.09516407	    -18.51446737	      0.00000000	      2.61371053	     -4.86120823	     -2.11561124	     82.27075972	     82.27075972	    -19.55606603	    -22.40081972	      0.00000000	     -7.33088687	      6.33201010	     -6.32236099
    194.47571430	     -8.39315243	     -3.73023925	     -4.54117689	      0.41453519	      0.98357139	      0.19564481	     33.32670669	      7.71071138	      0.73809256	     34.91582433	     34.91582433	      1.27630108	    -20.55551217	      0.00000000	      6.67415306	     -6.74969715	     -2.23454354	     88.65617335	     88.65617335	    -17.33132948	    -21.35174487	      0.00000000	     -7.55317817	      7.78815446	     -4.80673776
    194.48571430	     -9.27237754	     -5.17442034	     -5.69781068	      0.40872692	      0.97391355	      0.19719174	     34.88298804	      9.93227046	      0.87936767	     39.39661829	     39.39661829	      3.30508238	    -22.16221483	      0.00000000	     11.14899602	     -8.80261507	     -1.84237728	     94.61610858	     94.61610858	    -15.33693039	    -20.26909650	      0.00000000	     -7.74406711	      9.58098859	     -3.12573916
